<svg xmlns="http://www.w3.org/2000/svg" width="16" height="16" viewBox="0 0 16 16">
    <path fill="#FFF" fill-rule="evenodd" d="M8 11.2A3.198 3.198 0 0 1 4.804 8c0-1.767 1.431-3.2 3.196-3.2A3.198 3.198 0 0 1 11.196 8c0 1.767-1.431 3.2-3.196 3.2zm0-1.6a1.6 1.6 0 1 0-.002-3.198A1.6 1.6 0 0 0 8 9.6zm5.135 2.293l.8-1.386-1.336-.772.148-1.067a4.863 4.863 0 0 0 0-1.336L12.6 6.265l1.335-.772-.799-1.386-1.337.773-.85-.665c-.35-.275-.737-.5-1.15-.667l-1-.404V1.6H7.202v1.544l-.998.404c-.413.168-.8.392-1.152.667l-.85.665-1.336-.773-.8 1.386 1.336.772-.148 1.067a4.863 4.863 0 0 0 0 1.336L3.4 9.735l-1.335.772.799 1.386 1.337-.773.85.665c.35.275.738.5 1.15.667l1 .404V14.4h1.597v-1.544l.998-.404c.413-.168.8-.392 1.152-.667l.85-.665 1.336.773h.001zm-2.738 2.042v1.745a.32.32 0 0 1-.32.32H5.923a.32.32 0 0 1-.32-.32v-1.745a6.382 6.382 0 0 1-1.536-.89l-1.51.873a.32.32 0 0 1-.437-.117L.043 10.2a.32.32 0 0 1 .117-.437l1.51-.874a6.465 6.465 0 0 1 0-1.776L.16 6.238a.32.32 0 0 1-.117-.437L2.12 2.2a.32.32 0 0 1 .436-.117l1.511.873a6.382 6.382 0 0 1 1.536-.89V.32a.32.32 0 0 1 .32-.32h4.154a.32.32 0 0 1 .32.32v1.745a6.382 6.382 0 0 1 1.536.89l1.51-.873a.32.32 0 0 1 .437.117L15.957 5.8a.32.32 0 0 1-.117.437l-1.51.874c.082.59.082 1.187 0 1.776l1.51.874a.32.32 0 0 1 .117.437L13.88 13.8a.32.32 0 0 1-.436.117l-1.511-.873a6.382 6.382 0 0 1-1.536.89v.001z"/>
</svg>
